<svg xmlns="http://www.w3.org/2000/svg" viewBox="0 0 48 48"><path fill="#005ad2" d="M15.96 40.17l-5.28-5.6h-.61v9.27h1.87v-5.47L17.21 44h.62v-9.27h-1.87v5.44zM23.43 40.25l-2.28-5.52h-2.11L23.11 44h.62l4.06-9.27h-2.1l-2.26 5.52zM37.32 34.73l-3.85 4.93-3.85-4.93h-.6V44h1.86v-4.85l2.29 2.86h.6l2.29-2.86V44h1.86v-9.27h-.6zM32 12.48A3.74 3.74 0 1132 20h-.24a2.3 2.3 0 00-2.32 2.29v8.49a1.12 1.12 0 001.13 1.11h6.2a1.12 1.12 0 001.13-1.11V6a2 2 0 00-2-2h-8.39a2.94 2.94 0 00-3 2.92h.15a3.74 3.74 0 11-1.4 0h.15a2.94 2.94 0 00-3-2.92h-8.28a2 2 0 00-2 2v24.74a1.12 1.12 0 001.13 1.11h6.2a1.12 1.12 0 001.13-1.11v-8.49A2.3 2.3 0 0016.23 20H16a3.74 3.74 0 113.8-3.74v14.48a1.12 1.12 0 001.13 1.11h6.18a1.12 1.12 0 001.13-1.11V16.22A3.77 3.77 0 0132 12.48z"/></svg>